{
	"asset":{
		"generator":"Khronos glTF Blender I/O v4.2.69",
		"version":"2.0"
	},
	"extensionsUsed":[
		"EXT_texture_webp"
	],
	"extensionsRequired":[
		"EXT_texture_webp"
	],
	"scene":0,
	"scenes":[
		{
			"name":"Scene",
			"nodes":[
				2
			]
		}
	],
	"nodes":[
		{
			"mesh":0,
			"name":"Plan1"
		},
		{
			"mesh":1,
			"name":"Plan2"
		},
		{
			"children":[
				0,
				1
			],
			"mesh":2,
			"name":"Parent",
			"rotation":[
				0.5,
				0.5,
				-0.5,
				0.5
			]
		}
	],
	"materials":[
		{
			"alphaMode":"BLEND",
			"doubleSided":true,
			"name":"VitrailTriple_THRASHMETAL_Legendes",
			"pbrMetallicRoughness":{
				"baseColorTexture":{
					"index":0
				},
				"metallicFactor":0,
				"roughnessFactor":0.5
			}
		}
	],
	"meshes":[
		{
			"name":"VitrailTriple_THRASHMETAL_Legendes.002",
			"primitives":[
				{
					"attributes":{
						"POSITION":0,
						"NORMAL":1,
						"TEXCOORD_0":2,
						"TEXCOORD_1":3
					},
					"indices":4,
					"material":0
				}
			]
		},
		{
			"name":"VitrailTriple_THRASHMETAL_Legendes.001",
			"primitives":[
				{
					"attributes":{
						"POSITION":5,
						"NORMAL":6,
						"TEXCOORD_0":7,
						"TEXCOORD_1":8
					},
					"indices":4,
					"material":0
				}
			]
		},
		{
			"name":"VitrailTriple_THRASHMETAL_Legendes",
			"primitives":[
				{
					"attributes":{
						"POSITION":9,
						"NORMAL":10,
						"TEXCOORD_0":11,
						"TEXCOORD_1":12
					},
					"indices":13,
					"material":0
				}
			]
		}
	],
	"textures":[
		{
			"extensions":{
				"EXT_texture_webp":{
					"source":0
				}
			},
			"sampler":0
		}
	],
	"images":[
		{
			"mimeType":"image/webp",
			"name":"VitrailTriple_THRASHMETAL_Legendes",
			"uri":"VitrailTriple_THRASHMETAL_Legendes.webp"
		}
	],
	"accessors":[
		{
			"bufferView":0,
			"componentType":5126,
			"count":3,
			"max":[
				0.10243058204650879,
				0,
				-0.1787150800228119
			],
			"min":[
				-0.1101216971874237,
				0,
				-0.4179268181324005
			],
			"type":"VEC3"
		},
		{
			"bufferView":1,
			"componentType":5126,
			"count":3,
			"type":"VEC3"
		},
		{
			"bufferView":2,
			"componentType":5126,
			"count":3,
			"type":"VEC2"
		},
		{
			"bufferView":3,
			"componentType":5126,
			"count":3,
			"type":"VEC2"
		},
		{
			"bufferView":4,
			"componentType":5123,
			"count":3,
			"type":"SCALAR"
		},
		{
			"bufferView":5,
			"componentType":5126,
			"count":3,
			"max":[
				0.13512781262397766,
				0,
				0.08544608950614929
			],
			"min":[
				-0.13102133572101593,
				0,
				-0.13514497876167297
			],
			"type":"VEC3"
		},
		{
			"bufferView":6,
			"componentType":5126,
			"count":3,
			"type":"VEC3"
		},
		{
			"bufferView":7,
			"componentType":5126,
			"count":3,
			"type":"VEC2"
		},
		{
			"bufferView":8,
			"componentType":5126,
			"count":3,
			"type":"VEC2"
		},
		{
			"bufferView":9,
			"componentType":5126,
			"count":10,
			"max":[
				0.5,
				0,
				0.5
			],
			"min":[
				-0.5,
				0,
				-0.5
			],
			"type":"VEC3"
		},
		{
			"bufferView":10,
			"componentType":5126,
			"count":10,
			"type":"VEC3"
		},
		{
			"bufferView":11,
			"componentType":5126,
			"count":10,
			"type":"VEC2"
		},
		{
			"bufferView":12,
			"componentType":5126,
			"count":10,
			"type":"VEC2"
		},
		{
			"bufferView":13,
			"componentType":5123,
			"count":36,
			"type":"SCALAR"
		}
	],
	"bufferViews":[
		{
			"buffer":0,
			"byteLength":36,
			"byteOffset":0,
			"target":34962
		},
		{
			"buffer":0,
			"byteLength":36,
			"byteOffset":36,
			"target":34962
		},
		{
			"buffer":0,
			"byteLength":24,
			"byteOffset":72,
			"target":34962
		},
		{
			"buffer":0,
			"byteLength":24,
			"byteOffset":96,
			"target":34962
		},
		{
			"buffer":0,
			"byteLength":6,
			"byteOffset":120,
			"target":34963
		},
		{
			"buffer":0,
			"byteLength":36,
			"byteOffset":128,
			"target":34962
		},
		{
			"buffer":0,
			"byteLength":36,
			"byteOffset":164,
			"target":34962
		},
		{
			"buffer":0,
			"byteLength":24,
			"byteOffset":200,
			"target":34962
		},
		{
			"buffer":0,
			"byteLength":24,
			"byteOffset":224,
			"target":34962
		},
		{
			"buffer":0,
			"byteLength":120,
			"byteOffset":248,
			"target":34962
		},
		{
			"buffer":0,
			"byteLength":120,
			"byteOffset":368,
			"target":34962
		},
		{
			"buffer":0,
			"byteLength":80,
			"byteOffset":488,
			"target":34962
		},
		{
			"buffer":0,
			"byteLength":80,
			"byteOffset":568,
			"target":34962
		},
		{
			"buffer":0,
			"byteLength":72,
			"byteOffset":648,
			"target":34963
		}
	],
	"samplers":[
		{
			"magFilter":9729,
			"minFilter":9987,
			"wrapS":33071,
			"wrapT":33071
		}
	],
	"buffers":[
		{
			"byteLength":720,
			"uri":"test.bin"
		}
	]
}
